<svg width="25" height="18" viewBox="0 0 25 18" fill="none" xmlns="http://www.w3.org/2000/svg">
<path d="M8.32903 16.328C12.7001 16.3327 17.0712 16.3327 21.4423 16.328C21.7146 16.3232 21.9963 16.3043 22.2546 16.2334C23.0856 16.0065 23.5504 15.321 23.5504 14.3471C23.5551 11.8887 23.5551 9.42566 23.5504 6.96731C23.5504 6.87276 23.541 6.7782 23.5316 6.66947C16.1745 6.66947 8.8361 6.66947 1.43669 6.66947C1.43669 6.81602 1.43669 6.93421 1.43669 7.0524C1.43669 9.47767 1.43199 11.9029 1.44138 14.3235C1.44608 14.626 1.50242 14.9428 1.6151 15.217C1.87333 15.8363 2.33814 16.2381 3.02831 16.2712C3.65745 16.2996 4.29128 16.276 4.92042 16.2854C6.05662 16.2996 7.19283 16.328 8.32903 16.328ZM23.2358 3.74308C23.4096 3.74308 23.5833 3.77145 23.5645 3.49725C23.5222 3.0103 23.4002 2.56118 23.0621 2.1877C22.5785 1.65348 21.9729 1.45965 21.2686 1.45965C16.6862 1.4691 12.0992 1.46438 7.51209 1.46438C6.19747 1.46438 4.88286 1.45492 3.56355 1.46438C2.34753 1.47383 1.38504 2.49499 1.45547 3.74308C1.59162 3.74308 1.709 3.74308 1.82638 3.74308C4.63402 3.74308 7.44636 3.74308 10.254 3.74308C13.0992 3.74308 15.9444 3.74308 18.7896 3.74308C20.2733 3.74308 21.7569 3.73835 23.2358 3.74308ZM24.9965 3.56343C25.0012 7.17059 25.0012 10.7778 24.9965 14.3802C24.9965 16.0349 24.0762 17.2688 22.5457 17.6659C22.2499 17.7415 21.9353 17.7793 21.6301 17.7793C18.6018 17.7888 15.5688 17.7841 12.5405 17.7841C12.5405 17.7888 12.5405 17.7935 12.5405 17.7935C9.4981 17.7935 6.4604 17.803 3.418 17.7888C2.64332 17.7888 1.92028 17.5997 1.28175 17.1127C0.413165 16.4367 0.0187802 15.529 0.0140852 14.4606C-0.00469506 10.7919 -0.00469506 7.12805 0.0140852 3.46415C0.0187802 1.60148 1.62918 0.00827331 3.49312 0.0035457C9.47932 -0.0011819 15.4655 -0.0011819 21.4564 0.0035457C23.0809 0.00827331 24.4519 1.07198 24.8885 2.63682C24.9683 2.93466 24.9965 3.25614 24.9965 3.56343Z" fill="#FFFDF6"/>
</svg>
