<?xml version="1.0" encoding="utf-8"?>
<!-- Generator: Adobe Illustrator 17.0.0, SVG Export Plug-In . SVG Version: 6.00 Build 0)  -->
<!DOCTYPE svg PUBLIC "-//W3C//DTD SVG 1.1//EN" "http://www.w3.org/Graphics/SVG/1.1/DTD/svg11.dtd">
<svg version="1.1" id="Capa_1" xmlns="http://www.w3.org/2000/svg" xmlns:xlink="http://www.w3.org/1999/xlink" x="0px" y="0px"
	 width="114px" height="114px" viewBox="0 0 114 114" enable-background="new 0 0 114 114" xml:space="preserve">
<g id="XMLID_1_">
	<g>
		<path fill="#FFFFFF" d="M114,12v90c0,6.63-5.37,12-12,12H12c-6.63,0-12-5.37-12-12V12C0,5.37,5.37,0,12,0h90
			C108.63,0,114,5.37,114,12z M78.99,29.54c0-4.31,0-8.13,0-12.82c-5.3,0-10.46-0.33-15.56,0.09c-5.25,0.44-9.54,3.28-11.65,8.12
			c-1.5,3.46-2.16,7.38-2.64,11.16c-0.42,3.36-0.09,6.82-0.09,10.59c-3.82,0-7.25-0.11-10.67,0.07c-0.87,0.05-2.4,0.99-2.43,1.58
			c-0.21,4.27-0.11,8.56-0.11,13.16c4.57,0,8.72,0,13.32,0c0,12.21,0,24.09,0,35.91c5.46,0,10.46,0,15.78,0c0-12.07,0-23.87,0-35.97
			c3.95,0,7.58,0,11.46,0c0.77-4.96,1.5-9.66,2.3-14.88c-4.96,0-9.3,0-13.5,0c-0.2-0.64-0.31-0.84-0.32-1.04
			c-0.02-2.8-0.06-5.6-0.05-8.4c0.03-4.82,2.39-7.3,7.29-7.55C74.35,29.44,76.59,29.54,78.99,29.54z"/>
		<path fill="#252F66" d="M78.99,16.72c0,4.69,0,8.51,0,12.82c-2.4,0-4.64-0.1-6.87,0.02c-4.9,0.25-7.26,2.73-7.29,7.55
			c-0.01,2.8,0.03,5.6,0.05,8.4c0.01,0.2,0.12,0.4,0.32,1.04c4.2,0,8.54,0,13.5,0c-0.8,5.22-1.53,9.92-2.3,14.88
			c-3.88,0-7.51,0-11.46,0c0,12.1,0,23.9,0,35.97c-5.32,0-10.32,0-15.78,0c0-11.82,0-23.7,0-35.91c-4.6,0-8.75,0-13.32,0
			c0-4.6-0.1-8.89,0.11-13.16c0.03-0.59,1.56-1.53,2.43-1.58c3.42-0.18,6.85-0.07,10.67-0.07c0-3.77-0.33-7.23,0.09-10.59
			c0.48-3.78,1.14-7.7,2.64-11.16c2.11-4.84,6.4-7.68,11.65-8.12C68.53,16.39,73.69,16.72,78.99,16.72z"/>
	</g>
	<g>
	</g>
</g>
</svg>
