<?xml version="1.0" encoding="utf-8"?>
<!-- Generator: Adobe Illustrator 17.0.0, SVG Export Plug-In . SVG Version: 6.00 Build 0)  -->
<!DOCTYPE svg PUBLIC "-//W3C//DTD SVG 1.1//EN" "http://www.w3.org/Graphics/SVG/1.1/DTD/svg11.dtd">
<svg version="1.1" id="Capa_1" xmlns="http://www.w3.org/2000/svg" xmlns:xlink="http://www.w3.org/1999/xlink" x="0px" y="0px"
	 width="141.243px" height="141.152px" viewBox="0 0 141.243 141.152" enable-background="new 0 0 141.243 141.152"
	 xml:space="preserve">
<g>
	<g id="XMLID_1_">
		<g>
			<path fill="#252F66" d="M95.241,21.246c0,5.75,0,10.44,0,15.72c-2.95,0-5.7-0.11-8.43,0.03c-6.01,0.31-8.9,3.35-8.94,9.26
				c-0.02,3.44,0.03,6.87,0.06,10.31c0,0.25,0.14,0.49,0.39,1.27c5.15,0,10.48,0,16.57,0c-0.99,6.41-1.89,12.18-2.83,18.26
				c-4.76,0-9.21,0-14.06,0c0,14.84,0,29.33,0,44.13c-6.53,0-12.66,0-19.36,0c0-14.5,0-29.07,0-44.05c-5.64,0-10.73,0-16.34,0
				c0-5.66-0.12-10.91,0.14-16.15c0.03-0.73,1.91-1.88,2.98-1.94c4.19-0.22,8.4-0.09,13.09-0.09c0-4.62-0.41-8.86,0.11-12.99
				c0.59-4.64,1.39-9.45,3.24-13.69c2.58-5.94,7.85-9.42,14.29-9.96C82.411,20.836,88.741,21.246,95.241,21.246z"/>
			<path fill="#FFFFFF" d="M70.761,0.176c38.93,0,70.48,31.56,70.48,70.48c0,38.93-31.55,70.49-70.48,70.49
				s-70.49-31.56-70.49-70.49C0.271,31.736,31.831,0.176,70.761,0.176z M95.241,36.966c0-5.28,0-9.97,0-15.72
				c-6.5,0-12.83-0.41-19.09,0.11c-6.44,0.54-11.71,4.02-14.29,9.96c-1.85,4.24-2.65,9.05-3.24,13.69
				c-0.52,4.13-0.11,8.37-0.11,12.99c-4.69,0-8.9-0.13-13.09,0.09c-1.07,0.06-2.95,1.21-2.98,1.94c-0.26,5.24-0.14,10.49-0.14,16.15
				c5.61,0,10.7,0,16.34,0c0,14.98,0,29.55,0,44.05c6.7,0,12.83,0,19.36,0c0-14.8,0-29.29,0-44.13c4.85,0,9.3,0,14.06,0
				c0.94-6.08,1.84-11.85,2.83-18.26c-6.09,0-11.42,0-16.57,0c-0.25-0.78-0.39-1.02-0.39-1.27c-0.03-3.44-0.08-6.87-0.06-10.31
				c0.04-5.91,2.93-8.95,8.94-9.26C89.541,36.856,92.291,36.966,95.241,36.966z"/>
		</g>
		<g>
		</g>
	</g>
</g>
</svg>
