<?xml version="1.0" encoding="utf-8"?>
<!-- Generator: Adobe Illustrator 17.0.0, SVG Export Plug-In . SVG Version: 6.00 Build 0)  -->
<!DOCTYPE svg PUBLIC "-//W3C//DTD SVG 1.1//EN" "http://www.w3.org/Graphics/SVG/1.1/DTD/svg11.dtd">
<svg version="1.1" id="Capa_1" xmlns="http://www.w3.org/2000/svg" xmlns:xlink="http://www.w3.org/1999/xlink" x="0px" y="0px"
	 width="141.243px" height="141.152px" viewBox="0 0 141.243 141.152" enable-background="new 0 0 141.243 141.152"
	 xml:space="preserve">
<g id="XMLID_1_">
	<g>
		<path fill="#FFFFFF" d="M70.883,54.792c8.7,0.05,15.82,7.23,15.79,15.93c-0.01,4.17-1.59,7.96-4.18,10.81
			c-0.18,0.19-0.35,0.38-0.54,0.56c-0.14,0.14-0.29,0.28-0.43,0.41c-0.19,0.17-0.38,0.34-0.57,0.51c-0.01-0.01-0.01-0.01-0.01,0
			c-2.8,2.3-6.38,3.67-10.28,3.65c-8.94-0.04-16.02-7.23-15.95-16.2c0.03-4.16,1.6-7.89,4.2-10.68c0.17-0.18,0.34-0.36,0.52-0.53
			c0.14-0.15,0.29-0.29,0.45-0.41c0.19-0.17,0.38-0.34,0.58-0.5C63.273,56.092,66.893,54.762,70.883,54.792z"/>
		<path d="M54.713,70.462c-0.07,8.97,7.01,16.16,15.95,16.2c3.9,0.02,7.48-1.35,10.28-3.65c-2.81,2.37-6.44,3.79-10.41,3.77
			c-8.93-0.04-16.01-7.23-15.94-16.21c0.03-4.22,1.65-7.99,4.32-10.79C56.313,62.572,54.743,66.302,54.713,70.462z"/>
		<path d="M105.533,99.662c0.12-0.21,0.23-0.42,0.34-0.63C105.763,99.252,105.653,99.462,105.533,99.662z"/>
		<path fill="#FFFFFF" d="M90.453,33.612c10.33,0.12,17.19,6.96,17.3,17.22c0.15,13.36,0.16,26.72,0,40.08
			c-0.03,2.96-0.68,5.68-1.83,8.02c-0.02,0.04-0.03,0.07-0.05,0.1c-0.11,0.21-0.22,0.42-0.34,0.63c-0.25,0.44-0.51,0.87-0.8,1.28
			c-0.14,0.2-0.29,0.4-0.44,0.6c-0.01,0.02-0.03,0.04-0.04,0.06c-2.83,3.62-7.19,5.85-12.52,5.99c-13.88,0.37-27.78,0.36-41.66,0.01
			c-9.84-0.24-16.33-7.43-16.43-17.26c-0.06-6.61-0.01-13.22-0.01-19.83c0-6.49-0.05-12.97,0.01-19.45c0.02-2.2,0.37-4.28,1.01-6.17
			c0.09-0.27,0.19-0.54,0.29-0.8c0.11-0.26,0.22-0.52,0.33-0.77c0.8-1.78,1.88-3.36,3.19-4.71c3.02-3.09,7.29-4.95,12.31-5
			C63.993,33.462,77.223,33.462,90.453,33.612z M46.353,70.562c0,13.59,10.84,24.65,24.27,24.75c13.51,0.1,24.92-11.21,24.89-24.67
			c-0.02-13.24-11.32-24.52-24.61-24.58C57.573,45.992,46.353,57.192,46.353,70.562z M100.183,46.922c0.18-2.7-2.32-5.43-5.07-5.54
			c-2.86-0.12-5.49,2.26-5.39,5.13c0.1,2.99,1.57,4.99,4.77,5.23C97.443,51.962,99.993,49.772,100.183,46.922z"/>
		<path fill="#FFFFFF" d="M50.803,115.652c6.61,0.13,13.22,0.02,19.83,0.02v-0.01c6.88,0,13.76,0.17,20.64-0.04
			c14.38-0.43,24.26-10.38,24.45-24.77c0.18-13.49,0.17-26.99,0.02-40.47c-0.16-14.25-10.75-24.62-25.05-24.71
			c-13.36-0.07-26.71-0.09-40.07,0.01c-14.32,0.1-24.94,10.92-24.96,25.28c-0.02,12.96-0.01,25.92,0,38.88
			C25.673,104.982,35.723,115.352,50.803,115.652z M70.753,0.182c38.93,0,70.49,31.56,70.49,70.49s-31.56,70.48-70.49,70.48
			s-70.49-31.55-70.49-70.48S31.823,0.182,70.753,0.182z"/>
		<path fill="#252F66" d="M70.623,95.312c-13.43-0.1-24.27-11.16-24.27-24.75c0-13.37,11.22-24.57,24.55-24.5
			c13.29,0.06,24.59,11.34,24.61,24.58C95.543,84.102,84.133,95.412,70.623,95.312z M86.793,70.602
			c0.03-8.69-7.09-15.88-15.79-15.93c-4.05-0.03-7.72,1.34-10.54,3.67c-0.2,0.15-0.39,0.32-0.58,0.5c-0.16,0.12-0.31,0.26-0.45,0.41
			c-0.18,0.17-0.36,0.35-0.52,0.53c-2.67,2.8-4.29,6.57-4.32,10.79c-0.07,8.98,7.01,16.17,15.94,16.21c3.97,0.02,7.6-1.4,10.41-3.77
			c0-0.01,0-0.01,0.01,0c0.2-0.17,0.39-0.33,0.57-0.51c0.14-0.13,0.29-0.27,0.43-0.41c0.19-0.18,0.37-0.37,0.54-0.56
			C85.153,78.672,86.783,74.832,86.793,70.602z"/>
		<path d="M60.463,58.342c-0.2,0.16-0.39,0.33-0.58,0.5C60.073,58.662,60.263,58.492,60.463,58.342z"/>
		<path d="M104.293,101.542c0.15-0.2,0.3-0.4,0.44-0.6C104.603,101.142,104.453,101.342,104.293,101.542z"/>
		<path fill="#252F66" d="M70.633,115.672c-6.61,0-13.22,0.11-19.83-0.02c-15.08-0.3-25.13-10.67-25.14-25.81
			c-0.01-12.96-0.02-25.92,0-38.88c0.02-14.36,10.64-25.18,24.96-25.28c13.36-0.1,26.71-0.08,40.07-0.01
			c14.3,0.09,24.89,10.46,25.05,24.71c0.15,13.48,0.16,26.98-0.02,40.47c-0.19,14.39-10.07,24.34-24.45,24.77
			c-6.88,0.21-13.76,0.04-20.64,0.04V115.672z M107.783,90.882c0.16-13.36,0.14-26.72,0-40.08c-0.11-10.27-6.98-17.11-17.31-17.22
			c-13.22-0.15-26.45-0.15-39.68,0c-5.04,0.06-9.31,1.92-12.33,5.03c-1.31,1.35-2.39,2.93-3.19,4.71c-0.12,0.25-0.23,0.51-0.33,0.77
			c-0.1,0.26-0.2,0.53-0.29,0.8c-0.66,1.9-1.02,3.99-1.04,6.21c-0.05,6.48-0.01,12.96-0.01,19.44c0,6.61-0.05,13.23,0.02,19.84
			c0.09,9.82,6.58,17.01,16.43,17.26c13.87,0.35,27.77,0.35,41.65-0.01c5.36-0.14,9.73-2.39,12.55-6.03
			c0.01-0.02,0.03-0.04,0.04-0.06c0.16-0.2,0.31-0.4,0.44-0.6c0.29-0.41,0.55-0.84,0.8-1.28c0.12-0.2,0.23-0.41,0.34-0.63
			c0.02-0.03,0.03-0.06,0.05-0.1C107.093,96.582,107.743,93.862,107.783,90.882z"/>
		<path fill="#252F66" d="M95.113,41.382c2.75,0.11,5.25,2.84,5.07,5.54c-0.19,2.85-2.74,5.04-5.69,4.82
			c-3.2-0.24-4.67-2.24-4.77-5.23C89.623,43.642,92.253,41.262,95.113,41.382z"/>
		<path d="M35.273,43.322c-0.11,0.25-0.22,0.51-0.33,0.77C35.043,43.832,35.153,43.572,35.273,43.322z"/>
		<path d="M81.953,82.092c0.19-0.18,0.36-0.37,0.54-0.56C82.323,81.722,82.143,81.912,81.953,82.092z"/>
		<path d="M90.453,33.612c-13.23-0.15-26.46-0.15-39.68,0c-5.02,0.05-9.29,1.91-12.31,5c3.02-3.11,7.29-4.97,12.33-5.03
			c13.23-0.15,26.46-0.15,39.68,0c10.33,0.11,17.2,6.95,17.31,17.22c0.14,13.36,0.16,26.72,0,40.08c-0.04,2.98-0.69,5.7-1.86,8.05
			c1.15-2.34,1.8-5.06,1.83-8.02c0.16-13.36,0.15-26.72,0-40.08C107.643,40.572,100.783,33.732,90.453,33.612z"/>
		<path d="M71.003,54.672c8.7,0.05,15.82,7.24,15.79,15.93c-0.01,4.23-1.64,8.07-4.3,10.93c2.59-2.85,4.17-6.64,4.18-10.81
			c0.03-8.7-7.09-15.88-15.79-15.93c-3.99-0.03-7.61,1.3-10.42,3.55C63.283,56.012,66.953,54.642,71.003,54.672z"/>
		<path d="M80.953,83.012c0.19-0.17,0.38-0.34,0.57-0.51C81.343,82.682,81.153,82.842,80.953,83.012z"/>
		<path d="M50.053,107.642c-9.85-0.25-16.34-7.44-16.43-17.26c-0.07-6.61-0.02-13.23-0.02-19.84c0-6.48-0.04-12.96,0.01-19.44
			c0.02-2.22,0.38-4.31,1.04-6.21c-0.64,1.89-0.99,3.97-1.01,6.17c-0.06,6.48-0.01,12.96-0.01,19.45c0,6.61-0.05,13.22,0.01,19.83
			c0.1,9.83,6.59,17.02,16.43,17.26c13.88,0.35,27.78,0.36,41.66-0.01c5.33-0.14,9.69-2.37,12.52-5.99
			c-2.82,3.64-7.19,5.89-12.55,6.03C77.823,107.992,63.923,107.992,50.053,107.642z"/>
		<path d="M59.433,59.252c-0.18,0.17-0.35,0.35-0.52,0.53C59.073,59.602,59.253,59.422,59.433,59.252z"/>
	</g>
	<g>
	</g>
</g>
</svg>
