<?xml version="1.0" encoding="utf-8"?>
<!-- Generator: Adobe Illustrator 17.0.0, SVG Export Plug-In . SVG Version: 6.00 Build 0)  -->
<!DOCTYPE svg PUBLIC "-//W3C//DTD SVG 1.1//EN" "http://www.w3.org/Graphics/SVG/1.1/DTD/svg11.dtd">
<svg version="1.1" id="Capa_1" xmlns="http://www.w3.org/2000/svg" xmlns:xlink="http://www.w3.org/1999/xlink" x="0px" y="0px"
	 width="114px" height="114px" viewBox="0 0 114 114" enable-background="new 0 0 114 114" xml:space="preserve">
<g>
	<g id="XMLID_2_">
		<g>
			<path fill="#252F66" d="M38.59,89.7c12.34,0.31,24.7,0.32,37.04-0.01c8.46-0.22,14.16-6.37,14.26-14.86
				c0.15-11.88,0.13-23.75,0.01-35.63c-0.1-9.13-6.21-15.21-15.39-15.31c-11.76-0.13-23.52-0.13-35.28,0
				c-8.92,0.1-15.16,6.58-15.24,15.55c-0.06,5.76-0.01,11.52-0.01,17.28c0,5.88-0.05,11.76,0.01,17.64
				C24.07,83.09,29.84,89.48,38.59,89.7z M56.9,96.83v0.01c-5.88,0-11.76,0.1-17.64-0.02c-13.4-0.27-22.34-9.49-22.35-22.94
				c-0.01-11.52-0.02-23.04,0-34.56c0.03-12.77,9.46-22.39,22.19-22.48c11.88-0.09,23.75-0.07,35.63-0.01
				C87.44,16.91,96.85,26.13,97,38.8c0.13,11.99,0.14,23.98-0.02,35.97c-0.17,12.8-8.95,21.64-21.74,22.03
				C69.13,96.98,63.01,96.83,56.9,96.83z"/>
			<path fill="#FFFFFF" d="M73.84,35.39c0.09,2.66,1.39,4.44,4.24,4.65c2.63,0.2,4.89-1.76,5.06-4.28c0.16-2.41-2.07-4.84-4.51-4.94
				C76.09,30.72,73.75,32.84,73.84,35.39z M74.51,23.89c9.18,0.1,15.29,6.18,15.39,15.31c0.12,11.88,0.14,23.75-0.01,35.63
				c-0.1,8.49-5.8,14.64-14.26,14.86c-12.34,0.33-24.7,0.32-37.04,0.01c-8.75-0.22-14.52-6.61-14.6-15.34
				c-0.06-5.88-0.01-11.76-0.01-17.64c0-5.76-0.05-11.52,0.01-17.28c0.08-8.97,6.32-15.45,15.24-15.55
				C50.99,23.76,62.75,23.76,74.51,23.89z M35.28,56.77c0,12.08,9.64,21.91,21.58,22c12.01,0.09,22.15-9.96,22.13-21.93
				c-0.02-11.77-10.06-21.8-21.88-21.86C45.26,34.93,35.29,44.89,35.28,56.77z"/>
			<path fill="#252F66" d="M78.63,30.82c2.44,0.1,4.67,2.53,4.51,4.94c-0.17,2.52-2.43,4.48-5.06,4.28
				c-2.85-0.21-4.15-1.99-4.24-4.65C73.75,32.84,76.09,30.72,78.63,30.82z"/>
			<path fill="#FFFFFF" d="M57.25,42.76c7.73,0.05,14.06,6.43,14.04,14.17c-0.02,7.93-6.43,14.31-14.35,14.27
				C49,71.16,42.71,64.77,42.77,56.79C42.83,48.87,49.19,42.71,57.25,42.76z"/>
			<path fill="#252F66" d="M35.28,56.77c0.01-11.88,9.98-21.84,21.83-21.79c11.82,0.06,21.86,10.09,21.88,21.86
				c0.02,11.97-10.12,22.02-22.13,21.93C44.92,78.68,35.28,68.85,35.28,56.77z M42.77,56.79C42.71,64.77,49,71.16,56.94,71.2
				c7.92,0.04,14.33-6.34,14.35-14.27c0.02-7.74-6.31-14.12-14.04-14.17C49.19,42.71,42.83,48.87,42.77,56.79z"/>
			<path fill="#FFFFFF" d="M39.26,96.82c5.88,0.12,11.76,0.02,17.64,0.02v-0.01c6.11,0,12.23,0.15,18.34-0.03
				c12.79-0.39,21.57-9.23,21.74-22.03C97.14,62.78,97.13,50.79,97,38.8c-0.15-12.67-9.56-21.89-22.27-21.97
				c-11.88-0.06-23.75-0.08-35.63,0.01c-12.73,0.09-22.16,9.71-22.19,22.48c-0.02,11.52-0.01,23.04,0,34.56
				C16.92,87.33,25.86,96.55,39.26,96.82z M114,12v90c0,6.63-5.37,12-12,12H12c-6.63,0-12-5.37-12-12V12C0,5.37,5.37,0,12,0h90
				C108.63,0,114,5.37,114,12z"/>
		</g>
		<g>
		</g>
	</g>
</g>
</svg>
