<?xml version="1.0" encoding="utf-8"?>
<!-- Generator: Adobe Illustrator 17.0.0, SVG Export Plug-In . SVG Version: 6.00 Build 0)  -->
<!DOCTYPE svg PUBLIC "-//W3C//DTD SVG 1.1//EN" "http://www.w3.org/Graphics/SVG/1.1/DTD/svg11.dtd">
<svg version="1.1" id="Capa_1" xmlns="http://www.w3.org/2000/svg" xmlns:xlink="http://www.w3.org/1999/xlink" x="0px" y="0px"
	 width="141.243px" height="141.152px" viewBox="0 0 141.243 141.152" enable-background="new 0 0 141.243 141.152"
	 xml:space="preserve">
<g>
	<g id="XMLID_2_">
		<g>
			<path fill="#FFFFFF" d="M70.631,0.176c38.93,0,70.49,31.56,70.49,70.49s-31.56,70.49-70.49,70.49s-70.49-31.56-70.49-70.49
				S31.701,0.176,70.631,0.176z M112.571,108.856c0-12.79,0.52-25.37-0.17-37.88c-0.5-8.87-7.75-15.02-16.63-15.88
				c-7.52-0.73-14.51,0.33-20.18,7.13c-0.25-2.75-0.42-4.61-0.59-6.46c-5.34,0-10.3,0-15.45,0c0,17.71,0,35.14,0,52.98
				c5.34,0,10.41,0,15.74,0c0-9.47-0.06-18.59,0.02-27.71c0.06-6.77,4.68-11.42,11.11-11.42c6.04-0.01,10.23,4.4,10.34,11.15
				c0.12,7.42,0.03,14.83,0.03,22.24c0,1.92,0,3.85,0,5.85C102.391,108.856,107.371,108.856,112.571,108.856z M42.231,47.906
				c5.3-0.06,9.45-4.32,9.43-9.67c-0.02-5.34-4.21-9.67-9.45-9.76c-5.2-0.08-9.85,4.69-9.7,9.97
				C32.651,43.796,36.951,47.976,42.231,47.906z M49.731,108.806c0-17.89,0-35.49,0-53.02c-5.32,0-10.27,0-15.38,0
				c0,17.81,0,35.31,0,53.02C39.641,108.806,44.711,108.806,49.731,108.806z"/>
			<path fill="#252F66" d="M112.401,70.976c0.69,12.51,0.17,25.09,0.17,37.88c-5.2,0-10.18,0-15.78,0c0-2,0-3.93,0-5.85
				c0-7.41,0.09-14.82-0.03-22.24c-0.11-6.75-4.3-11.16-10.34-11.15c-6.43,0-11.05,4.65-11.11,11.42
				c-0.08,9.12-0.02,18.24-0.02,27.71c-5.33,0-10.4,0-15.74,0c0-17.84,0-35.27,0-52.98c5.15,0,10.11,0,15.45,0
				c0.17,1.85,0.34,3.71,0.59,6.46c5.67-6.8,12.66-7.86,20.18-7.13C104.651,55.956,111.901,62.106,112.401,70.976z"/>
			<path fill="#252F66" d="M51.661,38.236c0.02,5.35-4.13,9.61-9.43,9.67c-5.28,0.07-9.58-4.11-9.72-9.46
				c-0.15-5.28,4.5-10.05,9.7-9.97C47.451,28.566,51.641,32.896,51.661,38.236z"/>
			<path fill="#252F66" d="M49.731,55.786c0,17.53,0,35.13,0,53.02c-5.02,0-10.09,0-15.38,0c0-17.71,0-35.21,0-53.02
				C39.461,55.786,44.411,55.786,49.731,55.786z"/>
		</g>
		<g>
		</g>
	</g>
</g>
</svg>
