<?xml version="1.0" encoding="utf-8"?>
<!-- Generator: Adobe Illustrator 17.0.0, SVG Export Plug-In . SVG Version: 6.00 Build 0)  -->
<!DOCTYPE svg PUBLIC "-//W3C//DTD SVG 1.1//EN" "http://www.w3.org/Graphics/SVG/1.1/DTD/svg11.dtd">
<svg version="1.1" id="Capa_1" xmlns="http://www.w3.org/2000/svg" xmlns:xlink="http://www.w3.org/1999/xlink" x="0px" y="0px"
	 width="114px" height="114px" viewBox="0 0 114 114" enable-background="new 0 0 114 114" xml:space="preserve">
<g>
	<g id="XMLID_2_">
		<g>
			<path fill="#FFFFFF" d="M114,12v90c0,6.63-5.37,12-12,12H12c-6.63,0-12-5.37-12-12V12C0,5.37,5.37,0,12,0h90
				C108.63,0,114,5.37,114,12z M96.85,97.33c0-12.79,0.52-25.37-0.18-37.88c-0.49-8.87-7.74-15.02-16.63-15.88
				c-7.51-0.72-14.5,0.34-20.18,7.13c-0.24-2.75-0.41-4.61-0.58-6.46c-5.35,0-10.31,0-15.46,0c0,17.72,0,35.15,0,52.98
				c5.35,0,10.42,0,15.75,0c0-9.47-0.06-18.59,0.02-27.71c0.06-6.77,4.68-11.42,11.11-11.42c6.04,0,10.23,4.4,10.34,11.16
				c0.11,7.41,0.03,14.82,0.03,22.23c0,1.93,0,3.85,0,5.85C86.67,97.33,91.65,97.33,96.85,97.33z M26.51,36.39
				c5.3-0.07,9.45-4.32,9.43-9.68c-0.02-5.34-4.21-9.67-9.45-9.75c-5.21-0.09-9.85,4.68-9.71,9.97
				C16.93,32.27,21.22,36.45,26.51,36.39z M34.01,97.28c0-17.89,0-35.49,0-53.02c-5.33,0-10.28,0-15.39,0c0,17.81,0,35.31,0,53.02
				C23.92,97.28,28.99,97.28,34.01,97.28z"/>
			<path fill="#252F66" d="M96.67,59.45c0.7,12.51,0.18,25.09,0.18,37.88c-5.2,0-10.18,0-15.78,0c0-2,0-3.92,0-5.85
				c0-7.41,0.08-14.82-0.03-22.23c-0.11-6.76-4.3-11.16-10.34-11.16c-6.43,0-11.05,4.65-11.11,11.42
				c-0.08,9.12-0.02,18.24-0.02,27.71c-5.33,0-10.4,0-15.75,0c0-17.83,0-35.26,0-52.98c5.15,0,10.11,0,15.46,0
				c0.17,1.85,0.34,3.71,0.58,6.46c5.68-6.79,12.67-7.85,20.18-7.13C88.93,44.43,96.18,50.58,96.67,59.45z"/>
			<path fill="#252F66" d="M35.94,26.71c0.02,5.36-4.13,9.61-9.43,9.68c-5.29,0.06-9.58-4.12-9.73-9.46
				c-0.14-5.29,4.5-10.06,9.71-9.97C31.73,17.04,35.92,21.37,35.94,26.71z"/>
			<path fill="#252F66" d="M34.01,44.26c0,17.53,0,35.13,0,53.02c-5.02,0-10.09,0-15.39,0c0-17.71,0-35.21,0-53.02
				C23.73,44.26,28.68,44.26,34.01,44.26z"/>
		</g>
		<g>
		</g>
	</g>
</g>
</svg>
