<?xml version="1.0" encoding="utf-8"?>
<!-- Generator: Adobe Illustrator 17.0.0, SVG Export Plug-In . SVG Version: 6.00 Build 0)  -->
<!DOCTYPE svg PUBLIC "-//W3C//DTD SVG 1.1//EN" "http://www.w3.org/Graphics/SVG/1.1/DTD/svg11.dtd">
<svg version="1.1" id="Capa_1" xmlns="http://www.w3.org/2000/svg" xmlns:xlink="http://www.w3.org/1999/xlink" x="0px" y="0px"
	 width="141.243px" height="141.152px" viewBox="0 0 141.243 141.152" enable-background="new 0 0 141.243 141.152"
	 xml:space="preserve">
<g>
	<g id="XMLID_1_">
		<g>
			<path fill="#FFFFFF" d="M70.631,0.176c38.93,0,70.49,31.56,70.49,70.49s-31.56,70.49-70.49,70.49s-70.49-31.56-70.49-70.49
				S31.701,0.176,70.631,0.176z M109.771,110.876c0.06,0,0.12,0,0.21-0.01c-0.05-0.08-0.08-0.13-0.11-0.18
				c-3.07-4.46-6.14-8.93-9.21-13.39c-3.82-5.56-7.64-11.13-11.47-16.69c-3.64-5.3-7.28-10.6-10.93-15.9
				c-0.11-0.16-0.11-0.24,0.01-0.38c4.32-5,8.62-10.01,12.93-15.02c4.84-5.62,9.68-11.24,14.52-16.86c0.56-0.67,1.13-1.33,1.69-2
				c-2.31,0-4.61,0-6.92,0c-2.25,2.61-4.5,5.23-6.75,7.84c-6.11,7.11-12.22,14.21-18.33,21.31c-0.12,0.13-0.24,0.27-0.37,0.42
				c-0.31-0.45-0.6-0.88-0.9-1.31c-3.85-5.6-7.69-11.19-11.54-16.79c-2.58-3.76-5.16-7.52-7.75-11.28
				c-0.04-0.06-0.08-0.13-0.12-0.19c-7.75,0-15.51,0-23.26,0c-0.06,0-0.11,0-0.17,0c-0.01,0-0.01,0.03-0.02,0.04
				c0.27,0.38,0.54,0.75,0.81,1.13c3.17,4.61,6.33,9.22,9.5,13.83c2.97,4.32,5.94,8.64,8.9,12.96c3.03,4.41,6.06,8.81,9.09,13.22
				c0.77,1.11,1.52,2.22,2.29,3.33c0.12,0.16,0.11,0.26-0.02,0.4c-5.29,6.15-10.58,12.29-15.87,18.44
				c-4.85,5.63-9.7,11.27-14.55,16.91c-0.05,0.05-0.1,0.09-0.15,0.14c0,0.01,0,0.02,0,0.04c0.03,0,0.06-0.01,0.08-0.01
				c2.22,0,4.44,0,6.66,0.01c0.15,0,0.24-0.05,0.33-0.16c0.71-0.82,1.42-1.64,2.13-2.47c7.85-9.12,15.7-18.24,23.54-27.36
				c0.35-0.41,0.71-0.82,1.07-1.24c0.05,0.07,0.1,0.12,0.13,0.18c1.57,2.28,3.14,4.56,4.7,6.84c2.6,3.78,5.2,7.56,7.8,11.35
				c2.91,4.23,5.82,8.46,8.73,12.7c0.08,0.12,0.16,0.16,0.3,0.16C94.421,110.876,102.091,110.876,109.771,110.876z"/>
			<path fill="#FFFFFF" d="M100.481,105.886c-0.11,0-0.17,0-0.24,0c-3.4,0-6.79,0-10.19,0c-0.16,0-0.26-0.04-0.35-0.17
				c-4.53-6.49-9.07-12.98-13.61-19.47c-5.29-7.56-10.58-15.13-15.87-22.69c-5.48-7.84-10.96-15.68-16.44-23.52
				c-0.96-1.37-1.92-2.75-2.89-4.13c-0.04-0.06-0.09-0.13-0.16-0.24c0.11,0,0.19,0,0.26,0c3.39,0,6.79,0.01,10.19,0
				c0.16,0,0.25,0.06,0.34,0.19c6.47,9.25,12.94,18.51,19.41,27.76c5.36,7.66,10.72,15.32,16.07,22.98
				c4.45,6.36,8.9,12.73,13.35,19.09C100.391,105.736,100.421,105.796,100.481,105.886z"/>
			<path fill="#252F66" d="M31.471,30.446c7.75,0,15.51,0,23.26,0c0.04,0.06,0.08,0.13,0.12,0.19c2.59,3.76,5.17,7.52,7.75,11.28
				c3.85,5.6,7.69,11.19,11.54,16.79c0.3,0.43,0.59,0.86,0.9,1.31c0.13-0.15,0.25-0.29,0.37-0.42c6.11-7.1,12.22-14.2,18.33-21.31
				c2.25-2.61,4.5-5.23,6.75-7.84c2.31,0,4.61,0,6.92,0c-0.56,0.67-1.13,1.33-1.69,2c-4.84,5.62-9.68,11.24-14.52,16.86
				c-4.31,5.01-8.61,10.02-12.93,15.02c-0.12,0.14-0.12,0.22-0.01,0.38c3.65,5.3,7.29,10.6,10.93,15.9
				c3.83,5.56,7.65,11.13,11.47,16.69c3.07,4.46,6.14,8.93,9.21,13.39c0.03,0.05,0.06,0.1,0.11,0.18c-0.09,0.01-0.15,0.01-0.21,0.01
				c-7.68,0-15.35,0-23.02,0.01c-0.14,0-0.22-0.04-0.3-0.16c-2.91-4.24-5.82-8.47-8.73-12.7c-2.6-3.79-5.2-7.57-7.8-11.35
				c-1.56-2.28-3.13-4.56-4.7-6.84c-0.03-0.06-0.08-0.11-0.13-0.18c-0.36,0.42-0.72,0.83-1.07,1.24
				c-7.84,9.12-15.69,18.24-23.54,27.36c-0.71,0.83-1.42,1.65-2.13,2.47c-0.09,0.11-0.18,0.16-0.33,0.16
				c-2.22-0.01-4.44-0.01-6.66-0.01c-0.02,0-0.05,0.01-0.08,0.01c0-0.02,0-0.03,0-0.04c0.05-0.05,0.1-0.09,0.15-0.14
				c4.85-5.64,9.7-11.28,14.55-16.91c5.29-6.15,10.58-12.29,15.87-18.44c0.13-0.14,0.14-0.24,0.02-0.4
				c-0.77-1.11-1.52-2.22-2.29-3.33c-3.03-4.41-6.06-8.81-9.09-13.22c-2.96-4.32-5.93-8.64-8.9-12.96
				c-3.17-4.61-6.33-9.22-9.5-13.83c-0.27-0.38-0.54-0.75-0.81-1.13c0.01-0.01,0.01-0.04,0.02-0.04
				C31.361,30.446,31.411,30.446,31.471,30.446z M100.241,105.886c0.07,0,0.13,0,0.24,0c-0.06-0.09-0.09-0.15-0.13-0.2
				c-4.45-6.36-8.9-12.73-13.35-19.09c-5.35-7.66-10.71-15.32-16.07-22.98c-6.47-9.25-12.94-18.51-19.41-27.76
				c-0.09-0.13-0.18-0.19-0.34-0.19c-3.4,0.01-6.8,0-10.19,0c-0.07,0-0.15,0-0.26,0c0.07,0.11,0.12,0.18,0.16,0.24
				c0.97,1.38,1.93,2.76,2.89,4.13c5.48,7.84,10.96,15.68,16.44,23.52c5.29,7.56,10.58,15.13,15.87,22.69
				c4.54,6.49,9.08,12.98,13.61,19.47c0.09,0.13,0.19,0.17,0.35,0.17C93.451,105.886,96.841,105.886,100.241,105.886z"/>
		</g>
		<g>
		</g>
	</g>
</g>
</svg>
